<?xml version="1.0" encoding="iso-8859-1"?>
<!-- Generator: Adobe Illustrator 17.0.0, SVG Export Plug-In . SVG Version: 6.00 Build 0)  -->
<!DOCTYPE svg PUBLIC "-//W3C//DTD SVG 1.1//EN" "http://www.w3.org/Graphics/SVG/1.1/DTD/svg11.dtd">
<svg version="1.1" id="Capa_1" xmlns="http://www.w3.org/2000/svg" xmlns:xlink="http://www.w3.org/1999/xlink" x="0px" y="0px"
	 width="64px" height="64px" viewBox="0 0 64 64" style="enable-background:new 0 0 64 64;" xml:space="preserve">
<polygon points="4.665,19.27 4.665,25.375 17.688,25.375 23.243,19.27 "/>
<path d="M4.665,42.693v10.845H52.93l-8.153-10.845H30.409l-0.621,2.23H16.896l6.323-3.5l-6.322-3.5h7.575l2.938-10.548h-8.839
	l-0.087,0.095l-0.105-0.095H4.665v13.318h7.158l0.349,0.73l-0.607,1.27H4.665z M13.279,41.423l-0.349-0.73l-2.482-5.197L16.776,39
	l4.378,2.424l-4.378,2.423l-6.329,3.503l2.225-4.657L13.279,41.423z"/>
<path d="M58.812,17.27v-5.234h-7.444c-0.266-4.339-3.87-7.789-8.275-7.789s-8.009,3.451-8.275,7.789H4.665v5.234h31.593l1.23,2
	H25.946l-5.555,6.105h7.576l0.579-2.078h11.059c0.073-0.073,0.161-0.129,0.238-0.197l0.121,0.197l3.13,5.09l3.25-5.287
	c1.03,0.906,1.693,2.218,1.693,3.697c0,2.73-2.213,4.943-4.943,4.943c-1.362,0-2.595-0.552-3.489-1.443h-5.742l-2.896,10.396h27.846
	V19.27H48.698l1.229-2H58.812z M48.128,17.27l-0.091,0.14h0.043l-1.143,1.86l-1.85,3.011l-1.993,3.243l-1.369-2.226L41.1,22.281
	l-1.851-3.011l-1.143-1.86h0.053l-0.091-0.14l-0.665-1.02c-0.725-1.112-1.108-2.393-1.108-3.703c0-0.173,0.013-0.342,0.026-0.511
	c0.263-3.511,3.198-6.289,6.775-6.289s6.512,2.778,6.775,6.289c0.013,0.169,0.026,0.339,0.026,0.511
	c0,1.311-0.384,2.591-1.108,3.703L48.128,17.27z"/>
<polygon points="58.812,53.538 58.812,42.693 47.278,42.693 55.431,53.538 "/>
<path d="M43.094,9.348c-1.675,0-3.07,1.143-3.484,2.688c-0.08,0.299-0.136,0.608-0.136,0.932c0,1.999,1.621,3.62,3.62,3.62
	c1.999,0,3.62-1.621,3.62-3.62c0-0.324-0.056-0.633-0.136-0.932C46.164,10.491,44.768,9.348,43.094,9.348z"/>
</svg>
