<?xml version="1.0" encoding="iso-8859-1"?>
<!-- Generator: Adobe Illustrator 17.0.0, SVG Export Plug-In . SVG Version: 6.00 Build 0)  -->
<!DOCTYPE svg PUBLIC "-//W3C//DTD SVG 1.1//EN" "http://www.w3.org/Graphics/SVG/1.1/DTD/svg11.dtd">
<svg version="1.1" id="Capa_1" xmlns="http://www.w3.org/2000/svg" xmlns:xlink="http://www.w3.org/1999/xlink" x="0px" y="0px"
	 width="64px" height="64px" viewBox="0 0 64 64" style="enable-background:new 0 0 64 64;" xml:space="preserve">
<g>
	<path d="M59.842,11.39l-11-10c-0.009-0.008-0.021-0.01-0.03-0.018c-0.14-0.121-0.295-0.213-0.459-0.274
		c-0.02-0.007-0.041-0.012-0.061-0.019c-0.136-0.044-0.278-0.068-0.419-0.072C47.859,1.006,47.847,1,47.833,1H6.917h-1.5v1.5v47.733
		c0,0.016,0.007,0.029,0.008,0.045c0.005,0.144,0.029,0.287,0.075,0.425c0.007,0.02,0.011,0.041,0.019,0.061
		c0.062,0.165,0.157,0.32,0.28,0.459c0.008,0.009,0.01,0.02,0.017,0.029l10.167,11c0.127,0.137,0.277,0.24,0.435,0.319v0.163h0.667
		h43.25V12h-0.107C60.147,11.775,60.031,11.562,59.842,11.39z M16.417,58.301l-8-8.656V6.121l8,8V58.301z M15.934,9.396
		l-3.792-3.792L10.538,4h36.715l0.044,0.04l0,0l7.987,7.262v0L56.053,12H54.65l-0.038,0.042L54.566,12H18.538L15.934,9.396z
		 M57.333,59.733H46.842V56c0-1.657-1.343-3-3-3H33.158c-1.657,0-3,1.343-3,3v3.733H19.417V15h37.917V59.733z"/>
	<path d="M22.861,26.159c0.428,0,0.774-0.387,0.774-0.864v-1.602c0-0.477,0.387-0.864,0.864-0.864h1.172
		c0.477,0,0.864,0.387,0.864,0.864v1.602c0,0.477,0.347,0.864,0.774,0.864s0.774-0.387,0.774-0.864v-5.731
		c0-0.477-0.347-0.864-0.774-0.864s-0.774,0.387-0.774,0.864v1.117c0,0.477-0.387,0.864-0.864,0.864h-1.172
		c-0.477,0-0.864-0.387-0.864-0.864v-1.117c0-0.477-0.347-0.864-0.774-0.864s-0.774,0.387-0.774,0.864v5.731
		C22.087,25.773,22.434,26.159,22.861,26.159z"/>
	<path d="M32.88,26.367c1.066,0,1.881-0.29,2.444-0.87c0.752-0.712,1.128-1.737,1.128-3.076c0-1.366-0.376-2.392-1.128-3.076
		c-0.563-0.58-1.378-0.87-2.444-0.87c-1.066,0-1.881,0.29-2.444,0.87c-0.756,0.685-1.133,1.71-1.133,3.076
		c0,1.339,0.378,2.365,1.133,3.076C30.999,26.077,31.814,26.367,32.88,26.367z M31.402,20.477c0.368-0.455,0.86-0.683,1.478-0.683
		s1.107,0.229,1.47,0.686c0.363,0.457,0.544,1.104,0.544,1.94c0,0.84-0.181,1.488-0.544,1.943c-0.363,0.455-0.853,0.683-1.47,0.683
		s-1.11-0.228-1.478-0.683c-0.368-0.455-0.552-1.103-0.552-1.943C30.851,21.58,31.034,20.932,31.402,20.477z"/>
	<path d="M37.882,20.022h0.514c0.477,0,0.864,0.387,0.864,0.864v4.411c0,0.477,0.351,0.864,0.784,0.864s0.784-0.387,0.784-0.864
		v-4.411c0-0.477,0.387-0.864,0.864-0.864h0.504c0.477,0,0.864-0.296,0.864-0.66s-0.387-0.66-0.864-0.66h-4.314
		c-0.477,0-0.864,0.296-0.864,0.66S37.405,20.022,37.882,20.022z"/>
	<path d="M44.88,26.159h3.925c0.477,0,0.864-0.3,0.864-0.67c0-0.37-0.387-0.67-0.864-0.67h-2.402c-0.477,0-0.864-0.387-0.864-0.864
		v-0.191c0-0.477,0.387-0.864,0.864-0.864h1.896c0.477,0,0.864-0.29,0.864-0.648c0-0.358-0.387-0.648-0.864-0.648h-1.896
		c-0.477,0-0.864-0.355-0.864-0.792c0-0.437,0.387-0.792,0.864-0.792h2.22c0.477,0,0.864-0.296,0.864-0.66s-0.387-0.66-0.864-0.66
		H44.88c-0.477,0-0.864,0.387-0.864,0.864v5.731C44.016,25.773,44.403,26.159,44.88,26.159z"/>
	<path d="M51.746,26.159h3.555c0.477,0,0.864-0.3,0.864-0.67c0-0.37-0.387-0.67-0.864-0.67h-1.997c-0.477,0-0.864-0.387-0.864-0.864
		v-4.39c0-0.477-0.349-0.864-0.779-0.864s-0.779,0.387-0.779,0.864v5.731C50.883,25.773,51.269,26.159,51.746,26.159z"/>
	<path d="M30,28.866h-6c-0.552,0-1,0.448-1,1v6.259c0,0.552,0.448,1,1,1h6c0.552,0,1-0.448,1-1v-6.259
		C31,29.314,30.552,28.866,30,28.866z"/>
	<path d="M41.429,28.811l-5.999,0.103c-0.552,0.01-0.992,0.465-0.983,1.017l0.108,6.258c0.01,0.552,0.465,0.992,1.017,0.983
		l5.999-0.103c0.552-0.01,0.992-0.465,0.983-1.017l-0.108-6.258C42.436,29.242,41.981,28.802,41.429,28.811z"/>
	<path d="M53,28.866h-6c-0.552,0-1,0.448-1,1v6.259c0,0.552,0.448,1,1,1h6c0.552,0,1-0.448,1-1v-6.259
		C54,29.314,53.552,28.866,53,28.866z"/>
	<path d="M30,39.866h-6c-0.552,0-1,0.448-1,1v6.259c0,0.552,0.448,1,1,1h6c0.552,0,1-0.448,1-1v-6.259
		C31,40.314,30.552,39.866,30,39.866z"/>
	<path d="M41.429,39.811l-5.999,0.103c-0.552,0.01-0.992,0.465-0.983,1.017l0.108,6.258c0.01,0.552,0.465,0.992,1.017,0.983
		l5.999-0.103c0.552-0.01,0.992-0.465,0.983-1.017l-0.108-6.258C42.436,40.242,41.981,39.802,41.429,39.811z"/>
	<path d="M53,39.866h-6c-0.552,0-1,0.448-1,1v6.259c0,0.552,0.448,1,1,1h6c0.552,0,1-0.448,1-1v-6.259
		C54,40.314,53.552,39.866,53,39.866z"/>
</g>
</svg>
