<?xml version="1.0" encoding="utf-8"?>
<!-- Generator: Adobe Illustrator 15.0.0, SVG Export Plug-In . SVG Version: 6.00 Build 0)  -->
<!DOCTYPE svg PUBLIC "-//W3C//DTD SVG 1.1//EN" "http://www.w3.org/Graphics/SVG/1.1/DTD/svg11.dtd">
<svg version="1.1" id="Layer_1" xmlns="http://www.w3.org/2000/svg" xmlns:xlink="http://www.w3.org/1999/xlink" x="0px" y="0px"
	 width="26px" height="26px" viewBox="0 0 26 26" enable-background="new 0 0 26 26" xml:space="preserve">
<g>
	<path d="M18.589,9.721l-0.228-1.325l1.101-1.073l-1.521-0.222l-0.681-1.379l-0.682,1.379l-1.521,0.222l1.101,1.073l-0.225,1.316
		h-6.04L9.668,8.396l1.102-1.073L9.248,7.101l-0.68-1.379L7.886,7.101L6.364,7.322l1.102,1.073L7.235,9.741
		c-0.575,0.124-1.007,0.634-1.007,1.245V21.98c0,0.701,0.572,1.273,1.275,1.273h4.15v0.031h2.855v-0.031h3.988
		c0.704,0,1.274-0.572,1.274-1.273V10.986C19.771,10.314,19.248,9.768,18.589,9.721z M17.261,9.196l0.98,0.516h-1.963L17.261,9.196z
		 M8.567,9.196l0.981,0.516H7.586L8.567,9.196z M14.1,22.875h-2.037V18.4H14.1V22.875z M18.679,21.98c0,0.1-0.08,0.181-0.182,0.181
		h-3.988v-4.169h-2.855v4.169h-4.15c-0.101,0-0.183-0.081-0.183-0.181V10.986c0-0.101,0.082-0.183,0.183-0.183h10.994
		c0.102,0,0.182,0.082,0.182,0.183V21.98z"/>
	<rect x="8.449" y="11.999" width="2.321" height="2.321"/>
	<rect x="11.858" y="11.999" width="2.32" height="2.321"/>
	<rect x="15.366" y="11.999" width="2.32" height="2.321"/>
	<rect x="8.449" y="15.141" width="2.321" height="2.321"/>
	<rect x="11.857" y="15.141" width="2.32" height="2.321"/>
	<rect x="15.366" y="15.141" width="2.32" height="2.321"/>
	<rect x="15.366" y="18.413" width="2.32" height="2.318"/>
	<rect x="8.449" y="18.413" width="2.321" height="2.318"/>
	<polygon points="10.75,9.697 13.019,8.504 15.287,9.697 14.854,7.171 16.688,5.382 14.153,5.014 13.019,2.715 11.884,5.014 
		9.349,5.382 11.184,7.171 	"/>
</g>
</svg>
