<?xml version="1.0" encoding="iso-8859-1"?>
<!-- Generator: Adobe Illustrator 17.1.0, SVG Export Plug-In . SVG Version: 6.00 Build 0)  -->
<!DOCTYPE svg PUBLIC "-//W3C//DTD SVG 1.1//EN" "http://www.w3.org/Graphics/SVG/1.1/DTD/svg11.dtd">
<svg version="1.1" id="Layer_1" xmlns="http://www.w3.org/2000/svg" xmlns:xlink="http://www.w3.org/1999/xlink" x="0px" y="0px"
	 viewBox="0 0 64 64" style="enable-background:new 0 0 64 64;" xml:space="preserve">
<g>
	<path d="M21.913,55.504c4.101,0,7.877-1.383,10.92-3.684c3.044,2.302,6.819,3.684,10.92,3.684c10.016,0,18.163-8.147,18.163-18.162
		c0-10.016-8.147-18.163-18.163-18.163c-4.101,0-7.877,1.383-10.92,3.684c-3.044-2.302-6.819-3.684-10.92-3.684
		c-10.016,0-18.163,8.147-18.163,18.163C3.75,47.356,11.897,55.504,21.913,55.504z M32.833,30.003
		c1.415,2.098,2.242,4.624,2.242,7.339s-0.827,5.241-2.242,7.339c-1.415-2.098-2.242-4.624-2.242-7.339S31.419,32.101,32.833,30.003
		z M43.754,24.179c7.258,0,13.163,5.905,13.163,13.163s-5.905,13.162-13.163,13.162c-2.722,0-5.254-0.831-7.355-2.252
		c2.297-3.042,3.677-6.813,3.677-10.91c0-4.097-1.38-7.869-3.677-10.911C38.5,25.01,41.032,24.179,43.754,24.179z M21.913,24.179
		c2.722,0,5.254,0.831,7.355,2.252c-2.297,3.042-3.677,6.814-3.677,10.911c0,4.097,1.38,7.868,3.677,10.91
		c-2.101,1.421-4.633,2.252-7.355,2.252c-7.258,0-13.163-5.904-13.163-13.162S14.655,24.179,21.913,24.179z"/>
	<path d="M32.482,12h-0.02c0,0-2.764-3.027-5.176-0.816s-0.302,7.305,5.176,9.516l0.02,0.019c5.477-2.211,7.588-7.324,5.176-9.535
		S32.482,12,32.482,12z"/>
</g>
</svg>
